<svg width="15" height="12" viewBox="0 0 15 12" fill="none" xmlns="http://www.w3.org/2000/svg">
<path d="M0.411595 2.37545C0.502121 1.97879 0.724658 1.62462 1.04276 1.37096C1.36086 1.11729 1.75567 0.97916 2.16253 0.979187H12.9375C13.3444 0.97916 13.7392 1.11729 14.0573 1.37096C14.3754 1.62462 14.5979 1.97879 14.6885 2.37545L7.55003 6.73842L0.411595 2.37545ZM0.366699 3.40087V9.77967L5.57731 6.58488L0.366699 3.40087ZM6.43751 7.11196L0.538201 10.7279C0.683957 11.0352 0.914003 11.2948 1.20157 11.4765C1.48913 11.6582 1.82238 11.7545 2.16253 11.7542H12.9375C13.2776 11.7543 13.6108 11.6578 13.8982 11.4759C14.1856 11.2941 14.4154 11.0343 14.561 10.727L8.66165 7.11106L7.55003 7.79078L6.43751 7.11106V7.11196ZM9.52275 6.58578L14.7334 9.77967V3.40087L9.52275 6.58488V6.58578Z" fill="#0068A3"/>
</svg>
