<svg width="15" height="17" viewBox="0 0 15 17" fill="none" xmlns="http://www.w3.org/2000/svg">
<path d="M7.55003 8.56665C8.04389 8.56665 8.46681 8.40239 8.81879 8.07387C9.17017 7.74591 9.34587 7.35147 9.34587 6.89054C9.34587 6.42961 9.17017 6.03489 8.81879 5.70637C8.46681 5.37841 8.04389 5.21443 7.55003 5.21443C7.05618 5.21443 6.63356 5.37841 6.28217 5.70637C5.93019 6.03489 5.7542 6.42961 5.7542 6.89054C5.7542 7.35147 5.93019 7.74591 6.28217 8.07387C6.63356 8.40239 7.05618 8.56665 7.55003 8.56665ZM7.55003 16.9472C5.14062 15.0336 3.3412 13.2561 2.15176 11.6147C0.961719 9.97375 0.366699 8.45491 0.366699 7.05815C0.366699 4.96301 1.08892 3.29389 2.53337 2.05077C3.97722 0.807654 5.64944 0.186096 7.55003 0.186096C9.45062 0.186096 11.1228 0.807654 12.5667 2.05077C14.0111 3.29389 14.7334 4.96301 14.7334 7.05815C14.7334 8.45491 14.1386 9.97375 12.9492 11.6147C11.7592 13.2561 9.95944 15.0336 7.55003 16.9472Z" fill="#0068A3"/>
</svg>
