<svg width="15" height="15" viewBox="0 0 15 15" fill="none" xmlns="http://www.w3.org/2000/svg">
<path fill-rule="evenodd" clip-rule="evenodd" d="M2.05921 0.742392C2.21632 0.585516 2.40498 0.463821 2.61268 0.385371C2.82038 0.306922 3.04238 0.27351 3.26398 0.287349C3.48557 0.301187 3.70169 0.361962 3.89802 0.465644C4.09434 0.569325 4.2664 0.713548 4.40277 0.888753L6.01453 2.95935C6.30994 3.33917 6.4141 3.83392 6.29737 4.30084L5.80621 6.26727C5.78082 6.36912 5.78219 6.47581 5.8102 6.57697C5.8382 6.67814 5.89189 6.77034 5.96604 6.84463L8.17222 9.05081C8.2466 9.12512 8.33896 9.1789 8.4403 9.20691C8.54164 9.23491 8.6485 9.2362 8.75048 9.21064L10.716 8.71948C10.9464 8.66187 11.1869 8.6574 11.4193 8.7064C11.6517 8.7554 11.87 8.85659 12.0575 9.00233L14.1281 10.6132C14.8725 11.1923 14.9407 12.2923 14.2745 12.9576L13.346 13.8861C12.6816 14.5506 11.6885 14.8424 10.7627 14.5164C8.39328 13.6827 6.24195 12.3263 4.46832 10.5476C2.6898 8.77427 1.33334 6.62326 0.499525 4.25414C0.17448 3.32929 0.466303 2.3353 1.13076 1.67084L2.05921 0.742392Z" fill="#0068A3"/>
</svg>
