<svg width="15" height="15" viewBox="0 0 15 15" fill="none" xmlns="http://www.w3.org/2000/svg">
<path d="M14.646 0.799024C14.6787 0.717436 14.6867 0.628057 14.669 0.541968C14.6514 0.455879 14.6088 0.376866 14.5467 0.314725C14.4846 0.252583 14.4055 0.210045 14.3195 0.192386C14.2334 0.174726 14.144 0.182721 14.0624 0.215378L1.00041 5.44036H0.999513L0.593654 5.60198C0.516784 5.63264 0.449885 5.68396 0.400347 5.75025C0.350809 5.81655 0.32056 5.89525 0.312942 5.97766C0.305323 6.06007 0.320632 6.14298 0.357176 6.21723C0.393721 6.29149 0.450079 6.3542 0.520025 6.39843L0.888171 6.63189L0.889069 6.63369L5.37416 9.48727L8.22774 13.9724L8.22954 13.9742L8.463 14.3423C8.50737 14.412 8.57012 14.4681 8.64432 14.5044C8.71852 14.5407 8.8013 14.5558 8.88354 14.5481C8.96579 14.5404 9.04432 14.5102 9.11049 14.4607C9.17665 14.4112 9.22788 14.3445 9.25855 14.2678L14.646 0.799024ZM13.0002 2.49609L6.27118 9.22507L6.07813 8.92158C6.04276 8.86589 5.99554 8.81867 5.93985 8.7833L5.63635 8.59025L12.3653 1.86126L13.4231 1.43834L13.0011 2.49609H13.0002Z" fill="#EEEEEE"/>
</svg>
